<svg xmlns="http://www.w3.org/2000/svg" width="150" height="40" viewBox="0 0 150 40">
  <defs>
    <style>
      .cls-1 {
        fill: none;
      }

      .cls-2, .cls-3, .cls-4 {
        fill: #fff;
      }

      .cls-4 {
        font-size: 9px;
        font-family: ProximaNova-Regular, Proxima Nova;
        letter-spacing: 0.06em;
      }

      .cls-5, .cls-6, .cls-7 {
        stroke: none;
      }

      .cls-6 {
        fill: #aaa;
      }

      .cls-7 {
        fill: rgba(0,0,0,0);
      }
    </style>
  </defs>
  <g id="APPLE" transform="translate(-998 -4537)">
    <g id="Path_81" data-name="Path 81" class="cls-1" transform="translate(998 4537)">
      <path class="cls-5" d="M5,0H145a5,5,0,0,1,5,5V35a5,5,0,0,1-5,5H5a5,5,0,0,1-5-5V5A5,5,0,0,1,5,0Z"/>
      <path class="cls-6" d="M 5 1 C 2.794403076171875 1 1 2.794399261474609 1 5 L 1 35 C 1 37.20560073852539 2.794403076171875 39 5 39 L 145 39 C 147.2055969238281 39 149 37.20560073852539 149 35 L 149 5 C 149 2.794399261474609 147.2055969238281 1 145 1 L 5 1 M 5 0 L 145 0 C 147.7614135742188 0 150 2.238578796386719 150 5 L 150 35 C 150 37.76142120361328 147.7614135742188 40 145 40 L 5 40 C 2.238555908203125 40 0 37.76142120361328 0 35 L 0 5 C 0 2.238578796386719 2.238555908203125 0 5 0 Z"/>
    </g>
    <g id="Union_17" data-name="Union 17" class="cls-2" transform="translate(2566.972 6492.72)">
      <path class="cls-5" d="M-1554.72-1927.978c-1.852-2.707-3.295-7.628-1.362-10.977a5.317,5.317,0,0,1,4.473-2.727c1.419-.03,2.736.958,3.608.958.856,0,2.484-1.181,4.163-1.005a5.066,5.066,0,0,1,3.991,2.158,4.948,4.948,0,0,0-2.355,4.152,4.781,4.781,0,0,0,2.919,4.4,10.964,10.964,0,0,1-1.518,3.092c-.895,1.337-1.831,2.644-3.321,2.669-1.446.033-1.931-.851-3.591-.851s-2.192.826-3.579.885h-.073C-1552.748-1925.224-1553.809-1926.676-1554.72-1927.978Zm6.548-14a4.64,4.64,0,0,1,1.144-3.361,4.963,4.963,0,0,1,3.208-1.661,4.868,4.868,0,0,1-1.115,3.491,4.1,4.1,0,0,1-3.193,1.53Z"/>
      <path class="cls-7" d="M -1551.365844726562 -1926.223754882812 L -1551.365966796875 -1926.223754882812 C -1551.354614257812 -1926.223754882812 -1551.343139648438 -1926.223999023438 -1551.331787109375 -1926.224365234375 C -1550.870361328125 -1926.244506835938 -1550.534912109375 -1926.385620117188 -1550.110717773438 -1926.564208984375 C -1549.532958984375 -1926.807250976562 -1548.81396484375 -1927.10986328125 -1547.7138671875 -1927.10986328125 C -1546.662109375 -1927.10986328125 -1545.969970703125 -1926.814819335938 -1545.413818359375 -1926.577758789062 C -1544.977783203125 -1926.391845703125 -1544.66259765625 -1926.257446289062 -1544.202026367188 -1926.257446289062 C -1544.18359375 -1926.257446289062 -1544.164672851562 -1926.257690429688 -1544.145629882812 -1926.258178710938 L -1544.142700195312 -1926.258178710938 L -1544.139770507812 -1926.25830078125 C -1543.185791015625 -1926.2744140625 -1542.469848632812 -1927.232788085938 -1541.633056640625 -1928.483764648438 L -1541.626220703125 -1928.494140625 L -1541.619018554688 -1928.504272460938 C -1541.171752929688 -1929.138305664062 -1540.801635742188 -1929.819946289062 -1540.513671875 -1930.53857421875 C -1542.170166015625 -1931.5849609375 -1543.200317382812 -1933.413452148438 -1543.202270507812 -1935.41845703125 L -1543.202270507812 -1935.42529296875 L -1543.2021484375 -1935.43212890625 C -1543.18115234375 -1937.08544921875 -1542.4892578125 -1938.618286132812 -1541.306640625 -1939.71337890625 C -1542.009643554688 -1940.331787109375 -1542.917602539062 -1940.699829101562 -1543.869140625 -1940.729858398438 L -1543.905395507812 -1940.731079101562 L -1543.941528320312 -1940.734741210938 C -1544.02001953125 -1940.743041992188 -1544.101928710938 -1940.747192382812 -1544.18505859375 -1940.747192382812 C -1544.899047851562 -1940.747192382812 -1545.657958984375 -1940.446044921875 -1546.327392578125 -1940.180297851562 C -1546.944458007812 -1939.935424804688 -1547.477294921875 -1939.723999023438 -1548.0009765625 -1939.723999023438 C -1548.572265625 -1939.723999023438 -1549.134521484375 -1939.950073242188 -1549.729736328125 -1940.189453125 C -1550.333374023438 -1940.43212890625 -1550.957641601562 -1940.68310546875 -1551.5458984375 -1940.68310546875 C -1551.55810546875 -1940.68310546875 -1551.5703125 -1940.682983398438 -1551.58251953125 -1940.682861328125 C -1553.087036132812 -1940.632202148438 -1554.475952148438 -1939.784301757812 -1555.208374023438 -1938.468994140625 L -1555.212158203125 -1938.462280273438 L -1555.215942382812 -1938.45556640625 C -1556.172973632812 -1936.7978515625 -1556.081298828125 -1934.791259765625 -1555.8359375 -1933.400024414062 C -1555.53564453125 -1931.697387695312 -1554.811157226562 -1929.883666992188 -1553.89794921875 -1928.547241210938 C -1553.249389648438 -1927.620239257812 -1552.270874023438 -1926.223876953125 -1551.365844726562 -1926.223754882812 M -1547.074462890625 -1943.162353515625 C -1546.546997070312 -1943.352294921875 -1546.076293945312 -1943.68505859375 -1545.71435546875 -1944.1357421875 L -1545.708618164062 -1944.142822265625 L -1545.702758789062 -1944.14990234375 C -1545.325439453125 -1944.6025390625 -1545.06103515625 -1945.125 -1544.921142578125 -1945.681640625 C -1545.4345703125 -1945.451538085938 -1545.897094726562 -1945.112182617188 -1546.276733398438 -1944.68017578125 C -1546.665771484375 -1944.2373046875 -1546.93603515625 -1943.718505859375 -1547.074462890625 -1943.162353515625 M -1551.365966796875 -1925.223754882812 C -1552.747802734375 -1925.223876953125 -1553.809326171875 -1926.67626953125 -1554.720336914062 -1927.978271484375 C -1556.572509765625 -1930.685424804688 -1558.015258789062 -1935.606689453125 -1556.08203125 -1938.95556640625 C -1555.173950195312 -1940.586303710938 -1553.4755859375 -1941.622192382812 -1551.609008789062 -1941.682495117188 C -1551.588012695312 -1941.682983398438 -1551.56689453125 -1941.68310546875 -1551.5458984375 -1941.68310546875 C -1550.150634765625 -1941.68310546875 -1548.860107421875 -1940.723999023438 -1548.0009765625 -1940.723999023438 C -1547.204223632812 -1940.723999023438 -1545.738403320312 -1941.747192382812 -1544.18505859375 -1941.747192382812 C -1544.069580078125 -1941.747192382812 -1543.953735351562 -1941.741577148438 -1543.837524414062 -1941.729370117188 C -1542.241821289062 -1941.678955078125 -1540.761352539062 -1940.87890625 -1539.846923828125 -1939.571166992188 C -1541.291381835938 -1938.682861328125 -1542.1806640625 -1937.115966796875 -1542.202270507812 -1935.41943359375 C -1542.200439453125 -1933.500610351562 -1541.052001953125 -1931.768188476562 -1539.283569335938 -1931.020263671875 C -1539.623779296875 -1929.915893554688 -1540.135864257812 -1928.871948242188 -1540.801879882812 -1927.927856445312 C -1541.696411132812 -1926.590454101562 -1542.63330078125 -1925.28369140625 -1544.122802734375 -1925.258422851562 C -1544.1494140625 -1925.2578125 -1544.176025390625 -1925.257446289062 -1544.202026367188 -1925.257446289062 C -1545.587646484375 -1925.257446289062 -1546.084838867188 -1926.10986328125 -1547.7138671875 -1926.10986328125 C -1549.387817382812 -1926.10986328125 -1549.905395507812 -1925.28369140625 -1551.293090820312 -1925.22509765625 C -1551.317504882812 -1925.224243164062 -1551.341796875 -1925.223754882812 -1551.365966796875 -1925.223754882812 Z M -1548.12744140625 -1941.979370117188 C -1548.127563476562 -1941.979370117188 -1548.127685546875 -1941.979370117188 -1548.127807617188 -1941.979370117188 C -1548.142456054688 -1941.979370117188 -1548.1572265625 -1941.979370117188 -1548.171997070312 -1941.9794921875 C -1548.251098632812 -1943.207153320312 -1547.83984375 -1944.415893554688 -1547.028076171875 -1945.340087890625 C -1546.20458984375 -1946.277099609375 -1545.059692382812 -1946.8701171875 -1543.819580078125 -1947.000610351562 C -1543.722290039062 -1945.735229492188 -1544.122802734375 -1944.4833984375 -1544.934692382812 -1943.509521484375 C -1545.7119140625 -1942.541870117188 -1546.886474609375 -1941.979370117188 -1548.12744140625 -1941.979370117188 Z"/>
    </g>
    <path id="Union_15" data-name="Union 15" class="cls-3" d="M-2532.831-6468.379v-12.05h1.8v1.507h.034a3.214,3.214,0,0,1,2.882-1.6c2.3,0,3.813,1.816,3.813,4.623s-1.505,4.62-3.777,4.62a3.069,3.069,0,0,1-2.849-1.583h-.042v4.485Zm1.85-7.521c0,1.823.955,3.045,2.374,3.045,1.447,0,2.394-1.2,2.394-3.045,0-1.833-.947-3.038-2.394-3.038C-2530.025-6478.938-2530.98-6477.708-2530.98-6475.9Zm-11.816,7.521v-12.05h1.8v1.507h.032a3.217,3.217,0,0,1,2.884-1.6c2.3,0,3.813,1.816,3.813,4.623s-1.507,4.62-3.779,4.62a3.069,3.069,0,0,1-2.849-1.583h-.042v4.485Zm1.85-7.521c0,1.823.955,3.045,2.374,3.045,1.447,0,2.394-1.2,2.394-3.045,0-1.833-.947-3.038-2.394-3.038C-2539.99-6478.938-2540.946-6477.708-2540.946-6475.9Zm21.325,1.066h1.9c.138,1.232,1.334,2.041,2.97,2.041,1.567,0,2.693-.809,2.693-1.919,0-.965-.68-1.541-2.29-1.938l-1.609-.387c-2.28-.55-3.339-1.618-3.339-3.347,0-2.143,1.866-3.616,4.519-3.616,2.625,0,4.423,1.473,4.483,3.616h-1.876c-.111-1.24-1.136-1.989-2.633-1.989s-2.522.757-2.522,1.86c0,.877.654,1.393,2.255,1.79l1.369.335c2.548.6,3.606,1.625,3.606,3.441,0,2.324-1.85,3.779-4.794,3.779C-2517.64-6471.168-2519.5-6472.589-2519.62-6474.834Zm31.41-1.023c0-2.839,1.643-4.682,4.19-4.682,2.506,0,4.081,1.72,4.081,4.465v.638h-6.4v.111a2.358,2.358,0,0,0,2.141,2.558,2.572,2.572,0,0,0,.295.008,2.052,2.052,0,0,0,2.091-1.274h1.764c-.251,1.644-1.85,2.771-3.9,2.771C-2486.575-6471.262-2488.211-6473.026-2488.211-6475.858Zm1.884-.9v.018h4.527a2.178,2.178,0,0,0-2.054-2.295c-.055,0-.111,0-.167,0h-.012A2.294,2.294,0,0,0-2486.326-6476.754Zm-17.036.854c0-2.849,1.678-4.639,4.293-4.639s4.3,1.79,4.3,4.639-1.661,4.638-4.3,4.638S-2503.362-6473.044-2503.362-6475.9Zm1.893,0c0,1.961.9,3.107,2.4,3.107s2.4-1.146,2.4-3.107-.9-3.108-2.4-3.108S-2501.47-6477.846-2501.47-6475.9Zm-3.932,4.578c-1.832,0-2.548-.688-2.548-2.444v-5.191h-1.315v-1.471h1.315v-2.142h1.868v2.142h1.722v1.471h-1.722v4.993c0,.774.345,1.136,1.1,1.136a5.789,5.789,0,0,0,.61-.042v1.463a5.11,5.11,0,0,1-.937.087Zm12.159-.052v-9.054h1.772v1.541h.044a2.161,2.161,0,0,1,2.177-1.636,3.013,3.013,0,0,1,.638.068v1.74a2.592,2.592,0,0,0-.836-.112,1.873,1.873,0,0,0-1.946,1.795,1.886,1.886,0,0,0,.01.288v5.37Zm-52.748,0-1.134-3.355h-4.734l-1.137,3.355h-2l4.483-12.418h2.083l4.485,12.418Zm-5.378-4.9h3.752l-1.85-5.448h-.052Z" transform="translate(3594 11039.208)"/>
    <text id="Download_on_the" data-name="Download on the" class="cls-4" transform="translate(1039 4551)"><tspan x="0" y="0">Download on the</tspan></text>
  </g>
</svg>