<svg xmlns="http://www.w3.org/2000/svg" width="150" height="40" viewBox="0 0 150 40">
  <defs>
    <style>
      .cls-1, .cls-6 {
        fill: none;
      }

      .cls-2, .cls-3, .cls-4, .cls-5, .cls-7 {
        fill: #fff;
      }

      .cls-3 {
        opacity: 0.2;
      }

      .cls-4 {
        opacity: 0.12;
      }

      .cls-5 {
        opacity: 0.25;
      }

      .cls-6 {
        stroke: #010b2f;
      }

      .cls-7 {
        font-size: 9px;
        font-family: ProximaNova-Regular, Proxima Nova;
        letter-spacing: 0.06em;
      }

      .cls-8, .cls-9 {
        stroke: none;
      }

      .cls-9 {
        fill: #aaa;
      }
    </style>
  </defs>
  <g id="GOOGLE" transform="translate(-998 -4477)">
    <g id="Path_80" data-name="Path 80" class="cls-1" transform="translate(998 4477)">
      <path class="cls-8" d="M5,0H145a5,5,0,0,1,5,5V35a5,5,0,0,1-5,5H5a5,5,0,0,1-5-5V5A5,5,0,0,1,5,0Z"/>
      <path class="cls-9" d="M 5 1 C 2.794403076171875 1 1 2.794399261474609 1 5 L 1 35 C 1 37.20560073852539 2.794403076171875 39 5 39 L 145 39 C 147.2055969238281 39 149 37.20560073852539 149 35 L 149 5 C 149 2.794399261474609 147.2055969238281 1 145 1 L 5 1 M 5 0 L 145 0 C 147.7614135742188 0 150 2.238578796386719 150 5 L 150 35 C 150 37.76142120361328 147.7614135742188 40 145 40 L 5 40 C 2.238555908203125 40 0 37.76142120361328 0 35 L 0 5 C 0 2.238578796386719 2.238555908203125 0 5 0 Z"/>
    </g>
    <path id="Path_42" data-name="Path 42" class="cls-2" d="M74.725,22.79a3.718,3.718,0,1,0,3.731,3.718A3.664,3.664,0,0,0,74.725,22.79Zm0,5.971a2.259,2.259,0,1,1,2.1-2.253A2.151,2.151,0,0,1,74.725,28.761ZM66.584,22.79a3.718,3.718,0,1,0,3.731,3.718A3.665,3.665,0,0,0,66.584,22.79Zm0,5.971a2.259,2.259,0,1,1,2.1-2.253A2.15,2.15,0,0,1,66.584,28.761ZM56.9,23.931v1.577h3.774a3.288,3.288,0,0,1-.859,1.985A3.86,3.86,0,0,1,56.9,28.648a4.2,4.2,0,0,1,0-8.393,4.023,4.023,0,0,1,2.845,1.127l1.112-1.112A5.5,5.5,0,0,0,56.9,18.678a5.774,5.774,0,1,0,0,11.547,5.278,5.278,0,0,0,4.027-1.619,5.7,5.7,0,0,0,1.282-4.675Zm39.6,1.225a3.456,3.456,0,0,0-3.183-2.366,3.533,3.533,0,0,0-3.506,3.718A3.637,3.637,0,0,0,93.5,30.225a3.7,3.7,0,0,0,3.1-1.647l-1.267-.845A2.123,2.123,0,0,1,93.5,28.761a1.892,1.892,0,0,1-1.8-1.127l4.972-2.056ZM91.434,26.4a2.04,2.04,0,0,1,1.943-2.169,1.439,1.439,0,0,1,1.38.789ZM87.392,30h1.634V19.073H87.392Zm-2.675-6.379H84.66A2.574,2.574,0,0,0,82.7,22.79a3.721,3.721,0,0,0,0,7.435,2.535,2.535,0,0,0,1.957-.844h.057v.535c0,1.422-.761,2.182-1.986,2.182a2.058,2.058,0,0,1-1.873-1.323l-1.422.591a3.542,3.542,0,0,0,3.3,2.2c1.916,0,3.535-1.127,3.535-3.873V23.015H84.717Zm-1.873,5.14a2.261,2.261,0,0,1,0-4.506,2.094,2.094,0,0,1,1.985,2.267A2.078,2.078,0,0,1,82.844,28.761Zm21.311-9.688h-3.908V30h1.631V25.86h2.277a3.4,3.4,0,1,0,0-6.787Zm.042,5.266h-2.319V20.594H104.2a1.873,1.873,0,1,1,0,3.745Zm10.08-1.569a3.062,3.062,0,0,0-2.91,1.673l1.448.6a1.546,1.546,0,0,1,1.49-.8,1.57,1.57,0,0,1,1.715,1.406v.112a3.617,3.617,0,0,0-1.7-.421c-1.56,0-3.149.857-3.149,2.46a2.524,2.524,0,0,0,2.713,2.4,2.3,2.3,0,0,0,2.081-1.069h.056v.844H117.6V25.793C117.6,23.852,116.147,22.77,114.277,22.77Zm-.2,5.989c-.534,0-1.279-.267-1.279-.928,0-.843.928-1.167,1.729-1.167a2.9,2.9,0,0,1,1.49.366A1.977,1.977,0,0,1,114.08,28.759Zm9.25-5.75-1.869,4.738H121.4l-1.941-4.738h-1.757l2.91,6.621-1.659,3.684h1.7l4.485-10.3ZM108.64,30h1.63V19.073h-1.63Z" transform="translate(988 4478)"/>
    <g id="LOGO" transform="translate(988 4467)">
      <path id="Path_43" data-name="Path 43" class="cls-2" d="M20.435,17.538a2.007,2.007,0,0,0-.462,1.405V41.059a2.005,2.005,0,0,0,.462,1.405l.074.072L32.9,30.147v-.292L20.509,17.465Z"/>
      <path id="Path_44" data-name="Path 44" class="cls-2" d="M37.028,34.279,32.9,30.147v-.292l4.131-4.131.093.054,4.893,2.78c1.4.794,1.4,2.093,0,2.887l-4.893,2.78Z"/>
      <path id="Path_45" data-name="Path 45" class="cls-2" d="M37.122,34.225,32.9,30,20.435,42.464a1.627,1.627,0,0,0,2.079.061l14.608-8.3"/>
      <path id="Path_46" data-name="Path 46" class="cls-2" d="M37.122,25.777l-14.608-8.3a1.627,1.627,0,0,0-2.079.061L32.9,30Z"/>
      <g id="Group_32" data-name="Group 32">
        <path id="Path_47" data-name="Path 47" class="cls-3" d="M37.029,34.132,22.514,42.379a1.665,1.665,0,0,1-2,.011h0l-.075.074h0l.074.073h0a1.665,1.665,0,0,0,2-.011l14.608-8.3Z"/>
        <path id="Path_48" data-name="Path 48" class="cls-4" d="M20.435,42.318a2.007,2.007,0,0,1-.462-1.405v.146a2.005,2.005,0,0,0,.462,1.405l.075-.074Z"/>
      </g>
      <path id="Path_49" data-name="Path 49" class="cls-4" d="M42.015,31.3l-4.986,2.833.093.093,4.893-2.78A1.755,1.755,0,0,0,43.063,30h0A1.861,1.861,0,0,1,42.015,31.3Z"/>
      <path id="Path_50" data-name="Path 50" class="cls-5" d="M22.514,17.623l19.5,11.08A1.861,1.861,0,0,1,43.063,30h0a1.753,1.753,0,0,0-1.048-1.444l-19.5-11.08c-1.4-.794-2.541-.134-2.541,1.466v.147C19.973,17.489,21.116,16.829,22.514,17.623Z"/>
      <path id="Path_745" data-name="Path 745" class="cls-6" d="M1128.457,4489.592l17.057,16.971" transform="translate(-1108 -4472)"/>
      <path id="Path_746" data-name="Path 746" class="cls-6" d="M1145.264,4497.718l-17.05,17.012" transform="translate(-1108 -4472)"/>
    </g>
    <text id="GET_IN_ON" data-name="GET IN ON" class="cls-7" transform="translate(1063 4491)"><tspan x="-23.706" y="0">GET IN ON</tspan></text>
  </g>
</svg>